# xmcd
#
# Track frame offsets: 
#        150
#        12201
#        25255
#        35759
#        57562
#        81120
#        99403
#        111426
#        132323
#        148525
#        171666
#        193929
#        209128
#        220552
#        239541
#        257680
#        275763
#        288468
#        305130
#
# Disc length: 4507 seconds
#
# Revision: 0
# Processed by: cddbd v1.5.2PL0 Copyright (c) Steve Scherf et al.
# Submitted via: ExactAudioCopy v1.0b4
#
DISCID=34119913
DTITLE=James Cotton - Live And On The Move (DLP)
DYEAR=1900
DGENRE=Blues
TTITLE0=Cotton Boogie
TTITLE1=One More Mile
TTITLE2=All Walks Of Life
TTITLE3=Born In Missouri
TTITLE4=Flip Flop and Fly
TTITLE5=Mojo
TTITLE6=Rocket 88
TTITLE7=Goodbye My Lady
TTITLE8=I Don't Know
TTITLE9=Caladonia
TTITLE10=Boogie Thing
TTITLE11=Good Morning Lil' School Girl
TTITLE12=Oh Baby You Don't Have To Go
TTITLE13=Help Me
TTITLE14=Fannie Mae
TTITLE15=Hot 'N' Cold
TTITLE16=Teeny Weenie Bit
TTITLE17=Blow Wind Blow
TTITLE18=How Long Can A Fool Go Wrong
EXTD=
EXTT0=
EXTT1=
EXTT2=
EXTT3=
EXTT4=
EXTT5=
EXTT6=
EXTT7=
EXTT8=
EXTT9=
EXTT10=
EXTT11=
EXTT12=
EXTT13=
EXTT14=
EXTT15=
EXTT16=
EXTT17=
EXTT18=
PLAYORDER=
